<mxfile host="app.diagrams.net" modified="2023-04-16T12:10:00.000Z" agent="Mozilla/5.0 (Windows NT 10.0; Win64; x64) AppleWebKit/537.36 (KHTML, like Gecko) Chrome/89.0.4389.82 Safari/537.36" etag="1" version="21.6.6" type="device">
  <diagram id="ChemTrack_Architecture" name="ChemTrack Architecture">
    <mxGraphModel dx="1422" dy="762" grid="1" gridSize="10" guides="1" tooltips="1" connect="1" arrows="1" fold="1" page="1" pageScale="1" pageWidth="1100" pageHeight="850" math="0" shadow="0">
      <root>
        <mxCell id="0" />
        <mxCell id="1" parent="0" />
        
        <!-- Title -->
        <mxCell id="title" value="ChemTrack AWS Architecture" style="text;html=1;align=center;verticalAlign=middle;resizable=0;points=[];autosize=1;strokeColor=none;fillColor=none;fontSize=24;fontStyle=1" parent="1" vertex="1">
          <mxGeometry x="350" y="20" width="400" height="40" as="geometry" />
        </mxCell>
        
        <!-- User Layer -->
        <mxCell id="userLayer" value="User Access" style="swimlane;horizontal=0;whiteSpace=wrap;html=1;fillColor=#dae8fc;strokeColor=#6c8ebf;" parent="1" vertex="1">
          <mxGeometry x="50" y="80" width="1000" height="120" as="geometry" />
        </mxCell>
        
        <!-- Users -->
        <mxCell id="users" value="Users" style="sketch=0;outlineConnect=0;fontColor=#232F3E;gradientColor=none;fillColor=#232F3D;strokeColor=none;dashed=0;verticalLabelPosition=bottom;verticalAlign=top;align=center;html=1;fontSize=12;fontStyle=0;aspect=fixed;pointerEvents=1;shape=mxgraph.aws4.users;" parent="1" vertex="1">
          <mxGeometry x="350" y="120" width="48" height="48" as="geometry" />
        </mxCell>
        
        <!-- Developers -->
        <mxCell id="developers" value="Developers" style="sketch=0;outlineConnect=0;fontColor=#232F3E;gradientColor=none;fillColor=#232F3D;strokeColor=none;dashed=0;verticalLabelPosition=bottom;verticalAlign=top;align=center;html=1;fontSize=12;fontStyle=0;aspect=fixed;pointerEvents=1;shape=mxgraph.aws4.user;" parent="1" vertex="1">
          <mxGeometry x="700" y="120" width="48" height="48" as="geometry" />
        </mxCell>
        
        <!-- Intranet Subnets Layer -->
        <mxCell id="intranetLayer" value="Intranet Subnets (subnet-0ee959776d1683aa5, subnet-07257f93f815ce77c)" style="swimlane;horizontal=0;whiteSpace=wrap;html=1;fillColor=#d5e8d4;strokeColor=#82b366;" parent="1" vertex="1">
          <mxGeometry x="50" y="220" width="1000" height="180" as="geometry" />
        </mxCell>
        
        <!-- Application Load Balancer -->
        <mxCell id="alb" value="Application Load Balancer&#xa;(HTTPS Certificate)" style="sketch=0;outlineConnect=0;fontColor=#232F3E;gradientColor=none;fillColor=#4D27AA;strokeColor=none;dashed=0;verticalLabelPosition=bottom;verticalAlign=top;align=center;html=1;fontSize=12;fontStyle=0;aspect=fixed;pointerEvents=1;shape=mxgraph.aws4.application_load_balancer;" parent="1" vertex="1">
          <mxGeometry x="330" y="270" width="60" height="60" as="geometry" />
        </mxCell>
        
        <!-- Network Load Balancer -->
        <mxCell id="nlb" value="Network Load Balancer&#xa;(Database Access)" style="sketch=0;outlineConnect=0;fontColor=#232F3E;gradientColor=none;fillColor=#4D27AA;strokeColor=none;dashed=0;verticalLabelPosition=bottom;verticalAlign=top;align=center;html=1;fontSize=12;fontStyle=0;aspect=fixed;pointerEvents=1;shape=mxgraph.aws4.network_load_balancer;" parent="1" vertex="1">
          <mxGeometry x="700" y="270" width="60" height="60" as="geometry" />
        </mxCell>
        
        <!-- HTTPS/HTTP Redirection Note -->
        <mxCell id="httpsNote" value="HTTP â†’ HTTPS Redirection" style="text;html=1;align=center;verticalAlign=middle;resizable=0;points=[];autosize=1;strokeColor=none;fillColor=none;fontStyle=2" parent="1" vertex="1">
          <mxGeometry x="270" y="330" width="150" height="30" as="geometry" />
        </mxCell>
        
        <!-- Private Subnets Layer -->
        <mxCell id="privateLayer" value="Private Subnets (subnet-08de8ae010ebfa1f3, subnet-0205ddf1053073b5c)" style="swimlane;horizontal=0;whiteSpace=wrap;html=1;fillColor=#fff2cc;strokeColor=#d6b656;" parent="1" vertex="1">
          <mxGeometry x="50" y="420" width="1000" height="290" as="geometry" />
        </mxCell>
        
        <!-- Lambda Function -->
        <mxCell id="lambda" value="Lambda Function&#xa;(Email Notifications)" style="sketch=0;outlineConnect=0;fontColor=#232F3E;gradientColor=none;fillColor=#D45B07;strokeColor=none;dashed=0;verticalLabelPosition=bottom;verticalAlign=top;align=center;html=1;fontSize=12;fontStyle=0;aspect=fixed;pointerEvents=1;shape=mxgraph.aws4.lambda_function;" parent="1" vertex="1">
          <mxGeometry x="130" y="460" width="60" height="60" as="geometry" />
        </mxCell>
        
        <!-- Fargate Environment -->
        <mxCell id="fargate" value="ECS Fargate" style="swimlane;whiteSpace=wrap;html=1;fillColor=#ffe6cc;strokeColor=#d79b00;" parent="1" vertex="1">
          <mxGeometry x="280" y="440" width="730" height="250" as="geometry" />
        </mxCell>
        
        <!-- ECS Cluster Icon -->
        <mxCell id="ecsClusterIcon" value="" style="sketch=0;points=[[0,0,0],[0.25,0,0],[0.5,0,0],[0.75,0,0],[1,0,0],[0,1,0],[0.25,1,0],[0.5,1,0],[0.75,1,0],[1,1,0],[0,0.25,0],[0,0.5,0],[0,0.75,0],[1,0.25,0],[1,0.5,0],[1,0.75,0]];outlineConnect=0;fontColor=#232F3E;gradientColor=#F78E04;gradientDirection=north;fillColor=#D05C17;strokeColor=#ffffff;dashed=0;verticalLabelPosition=bottom;verticalAlign=top;align=center;html=1;fontSize=12;fontStyle=0;aspect=fixed;shape=mxgraph.aws4.resourceIcon;resIcon=mxgraph.aws4.fargate;" vertex="1" parent="fargate">
          <mxGeometry x="20" y="30" width="40" height="40" as="geometry" />
        </mxCell>
        
        <!-- Login Container -->
        <mxCell id="loginContainer" value="Login Container" style="sketch=0;outlineConnect=0;fontColor=#232F3E;gradientColor=none;fillColor=#D45B07;strokeColor=none;dashed=0;verticalLabelPosition=bottom;verticalAlign=top;align=center;html=1;fontSize=12;fontStyle=0;aspect=fixed;pointerEvents=1;shape=mxgraph.aws4.container_1;" parent="fargate" vertex="1">
          <mxGeometry x="80" y="40" width="48" height="31" as="geometry" />
        </mxCell>
        
        <!-- Main Container -->
        <mxCell id="mainContainer" value="Main Container" style="sketch=0;outlineConnect=0;fontColor=#232F3E;gradientColor=none;fillColor=#D45B07;strokeColor=none;dashed=0;verticalLabelPosition=bottom;verticalAlign=top;align=center;html=1;fontSize=12;fontStyle=0;aspect=fixed;pointerEvents=1;shape=mxgraph.aws4.container_1;" parent="fargate" vertex="1">
          <mxGeometry x="180" y="40" width="48" height="31" as="geometry" />
        </mxCell>
        
        <!-- Admin Container -->
        <mxCell id="adminContainer" value="Admin Container" style="sketch=0;outlineConnect=0;fontColor=#232F3E;gradientColor=none;fillColor=#D45B07;strokeColor=none;dashed=0;verticalLabelPosition=bottom;verticalAlign=top;align=center;html=1;fontSize=12;fontStyle=0;aspect=fixed;pointerEvents=1;shape=mxgraph.aws4.container_1;" parent="fargate" vertex="1">
          <mxGeometry x="280" y="40" width="48" height="31" as="geometry" />
        </mxCell>
        
        <!-- Search Container -->
        <mxCell id="searchContainer" value="Search Container" style="sketch=0;outlineConnect=0;fontColor=#232F3E;gradientColor=none;fillColor=#D45B07;strokeColor=none;dashed=0;verticalLabelPosition=bottom;verticalAlign=top;align=center;html=1;fontSize=12;fontStyle=0;aspect=fixed;pointerEvents=1;shape=mxgraph.aws4.container_1;" parent="fargate" vertex="1">
          <mxGeometry x="380" y="40" width="48" height="31" as="geometry" />
        </mxCell>
        
        <!-- Shared Templates Container -->
        <mxCell id="sharedContainer" value="Shared Templates Container" style="sketch=0;outlineConnect=0;fontColor=#232F3E;gradientColor=none;fillColor=#D45B07;strokeColor=none;dashed=0;verticalLabelPosition=bottom;verticalAlign=top;align=center;html=1;fontSize=12;fontStyle=0;aspect=fixed;pointerEvents=1;shape=mxgraph.aws4.container_1;" parent="fargate" vertex="1">
          <mxGeometry x="480" y="40" width="48" height="31" as="geometry" />
        </mxCell>
        
        <!-- Backend Container -->
        <mxCell id="backendContainer" value="Backend API Container" style="sketch=0;outlineConnect=0;fontColor=#232F3E;gradientColor=none;fillColor=#D45B07;strokeColor=none;dashed=0;verticalLabelPosition=bottom;verticalAlign=top;align=center;html=1;fontSize=12;fontStyle=0;aspect=fixed;pointerEvents=1;shape=mxgraph.aws4.container_1;" parent="fargate" vertex="1">
          <mxGeometry x="150" y="130" width="48" height="31" as="geometry" />
        </mxCell>
        
        <!-- NGINX Container -->
        <mxCell id="nginxContainer" value="NGINX Container" style="sketch=0;outlineConnect=0;fontColor=#232F3E;gradientColor=none;fillColor=#D45B07;strokeColor=none;dashed=0;verticalLabelPosition=bottom;verticalAlign=top;align=center;html=1;fontSize=12;fontStyle=0;aspect=fixed;pointerEvents=1;shape=mxgraph.aws4.container_1;" parent="fargate" vertex="1">
          <mxGeometry x="380" y="130" width="48" height="31" as="geometry" />
        </mxCell>
        
        <!-- PostgreSQL -->
        <mxCell id="postgres" value="PostgreSQL Database" style="sketch=0;outlineConnect=0;fontColor=#232F3E;gradientColor=none;fillColor=#2E73B8;strokeColor=none;dashed=0;verticalLabelPosition=bottom;verticalAlign=top;align=center;html=1;fontSize=12;fontStyle=0;aspect=fixed;pointerEvents=1;shape=mxgraph.aws4.rds_postgresql_instance;" parent="1" vertex="1">
          <mxGeometry x="700" y="550" width="60" height="60" as="geometry" />
        </mxCell>
        
        <!-- Supporting Services Layer -->
        <mxCell id="servicesLayer" value="Supporting Services" style="swimlane;horizontal=0;whiteSpace=wrap;html=1;fillColor=#e1d5e7;strokeColor=#9673a6;" parent="1" vertex="1">
          <mxGeometry x="50" y="730" width="1000" height="120" as="geometry" />
        </mxCell>
        
        <!-- ECR -->
        <mxCell id="ecr" value="Amazon ECR&#xa;(Container Registry)" style="sketch=0;points=[[0,0,0],[0.25,0,0],[0.5,0,0],[0.75,0,0],[1,0,0],[0,1,0],[0.25,1,0],[0.5,1,0],[0.75,1,0],[1,1,0],[0,0.25,0],[0,0.5,0],[0,0.75,0],[1,0.25,0],[1,0.5,0],[1,0.75,0]];outlineConnect=0;fontColor=#232F3E;gradientColor=#F78E04;gradientDirection=north;fillColor=#D05C17;strokeColor=#ffffff;dashed=0;verticalLabelPosition=bottom;verticalAlign=top;align=center;html=1;fontSize=12;fontStyle=0;aspect=fixed;shape=mxgraph.aws4.resourceIcon;resIcon=mxgraph.aws4.ecr;" parent="1" vertex="1">
          <mxGeometry x="140" y="770" width="60" height="60" as="geometry" />
        </mxCell>
        
        <!-- Secrets Manager -->
        <mxCell id="secrets" value="AWS Secrets Manager&#xa;(DB Credentials, User Auth)" style="sketch=0;points=[[0,0,0],[0.25,0,0],[0.5,0,0],[0.75,0,0],[1,0,0],[0,1,0],[0.25,1,0],[0.5,1,0],[0.75,1,0],[1,1,0],[0,0.25,0],[0,0.5,0],[0,0.75,0],[1,0.25,0],[1,0.5,0],[1,0.75,0]];outlineConnect=0;fontColor=#232F3E;gradientColor=#F54749;gradientDirection=north;fillColor=#C7131F;strokeColor=#ffffff;dashed=0;verticalLabelPosition=bottom;verticalAlign=top;align=center;html=1;fontSize=12;fontStyle=0;aspect=fixed;shape=mxgraph.aws4.resourceIcon;resIcon=mxgraph.aws4.secrets_manager;" parent="1" vertex="1">
          <mxGeometry x="360" y="770" width="60" height="60" as="geometry" />
        </mxCell>
        
        <!-- Parameter Store -->
        <mxCell id="paramStore" value="AWS Parameter Store&#xa;(API Keys, Configuration)" style="sketch=0;outlineConnect=0;fontColor=#232F3E;gradientColor=none;fillColor=#B0084D;strokeColor=none;dashed=0;verticalLabelPosition=bottom;verticalAlign=top;align=center;html=1;fontSize=12;fontStyle=0;aspect=fixed;pointerEvents=1;shape=mxgraph.aws4.parameter_store;" parent="1" vertex="1">
          <mxGeometry x="580" y="770" width="60" height="60" as="geometry" />
        </mxCell>
        
        <!-- SNS -->
        <mxCell id="sns" value="Amazon SNS&#xa;(Notifications)" style="sketch=0;points=[[0,0,0],[0.25,0,0],[0.5,0,0],[0.75,0,0],[1,0,0],[0,1,0],[0.25,1,0],[0.5,1,0],[0.75,1,0],[1,1,0],[0,0.25,0],[0,0.5,0],[0,0.75,0],[1,0.25,0],[1,0.5,0],[1,0.75,0]];outlineConnect=0;fontColor=#232F3E;gradientColor=#FF4F8B;gradientDirection=north;fillColor=#BC1356;strokeColor=#ffffff;dashed=0;verticalLabelPosition=bottom;verticalAlign=top;align=center;html=1;fontSize=12;fontStyle=0;aspect=fixed;shape=mxgraph.aws4.resourceIcon;resIcon=mxgraph.aws4.sns;" parent="1" vertex="1">
          <mxGeometry x="800" y="770" width="60" height="60" as="geometry" />
        </mxCell>
        
        <!-- Connections -->
        <!-- Users to ALB -->
        <mxCell id="userToAlb" value="" style="endArrow=classic;html=1;rounded=0;exitX=0.5;exitY=1;exitDx=0;exitDy=0;exitPerimeter=0;entryX=0.5;entryY=0;entryDx=0;entryDy=0;entryPerimeter=0;" edge="1" parent="1" source="users" target="alb">
          <mxGeometry width="50" height="50" relative="1" as="geometry">
            <mxPoint x="520" y="420" as="sourcePoint" />
            <mxPoint x="570" y="370" as="targetPoint" />
          </mxGeometry>
        </mxCell>
        
        <!-- Developers to ALB -->
        <mxCell id="devToAlb" value="" style="endArrow=classic;html=1;rounded=0;exitX=0;exitY=1;exitDx=0;exitDy=0;exitPerimeter=0;entryX=0.75;entryY=0;entryDx=0;entryDy=0;entryPerimeter=0;" edge="1" parent="1" source="developers" target="alb">
          <mxGeometry width="50" height="50" relative="1" as="geometry">
            <mxPoint x="520" y="420" as="sourcePoint" />
            <mxPoint x="570" y="370" as="targetPoint" />
          </mxGeometry>
        </mxCell>
        
        <!-- Developers to NLB -->
        <mxCell id="devToNlb" value="" style="endArrow=classic;html=1;rounded=0;exitX=0.5;exitY=1;exitDx=0;exitDy=0;exitPerimeter=0;entryX=0.5;entryY=0;entryDx=0;entryDy=0;entryPerimeter=0;" edge="1" parent="1" source="developers" target="nlb">
          <mxGeometry width="50" height="50" relative="1" as="geometry">
            <mxPoint x="520" y="420" as="sourcePoint" />
            <mxPoint x="570" y="370" as="targetPoint" />
          </mxGeometry>
        </mxCell>
        
        <!-- ALB to Fargate -->
        <mxCell id="albToFargate" value="" style="endArrow=classic;html=1;rounded=0;exitX=0.5;exitY=1;exitDx=0;exitDy=0;exitPerimeter=0;entryX=0.5;entryY=0;entryDx=0;entryDy=0;" edge="1" parent="1" source="alb" target="fargate">
          <mxGeometry width="50" height="50" relative="1" as="geometry">
            <mxPoint x="520" y="420" as="sourcePoint" />
            <mxPoint x="570" y="370" as="targetPoint" />
          </mxGeometry>
        </mxCell>
        
        <!-- NLB to PostgreSQL -->
        <mxCell id="nlbToPostgres" value="" style="endArrow=classic;html=1;rounded=0;exitX=0.5;exitY=1;exitDx=0;exitDy=0;exitPerimeter=0;entryX=0.5;entryY=0;entryDx=0;entryDy=0;entryPerimeter=0;" edge="1" parent="1" source="nlb" target="postgres">
          <mxGeometry width="50" height="50" relative="1" as="geometry">
            <mxPoint x="520" y="420" as="sourcePoint" />
            <mxPoint x="570" y="370" as="targetPoint" />
          </mxGeometry>
        </mxCell>
        
        <!-- Backend to PostgreSQL -->
        <mxCell id="backendToPostgres" value="" style="endArrow=classic;html=1;rounded=0;exitX=1;exitY=0.5;exitDx=0;exitDy=0;exitPerimeter=0;entryX=0;entryY=0.5;entryDx=0;entryDy=0;entryPerimeter=0;" edge="1" parent="1" source="backendContainer" target="postgres">
          <mxGeometry width="50" height="50" relative="1" as="geometry">
            <mxPoint x="520" y="420" as="sourcePoint" />
            <mxPoint x="570" y="370" as="targetPoint" />
          </mxGeometry>
        </mxCell>
        
        <!-- Lambda to SNS -->
        <mxCell id="lambdaToSns" value="" style="endArrow=classic;html=1;rounded=0;exitX=0.5;exitY=1;exitDx=0;exitDy=0;exitPerimeter=0;entryX=0;entryY=0.5;entryDx=0;entryDy=0;entryPerimeter=0;" edge="1" parent="1" source="lambda" target="sns">
          <mxGeometry width="50" height="50" relative="1" as="geometry">
            <mxPoint x="520" y="620" as="sourcePoint" />
            <mxPoint x="570" y="570" as="targetPoint" />
            <Array as="points">
              <mxPoint x="160" y="800" />
            </Array>
          </mxGeometry>
        </mxCell>
        
        <!-- Backend to Parameter Store -->
        <mxCell id="backendToParam" value="" style="endArrow=classic;html=1;rounded=0;exitX=0.25;exitY=1;exitDx=0;exitDy=0;exitPerimeter=0;entryX=0.25;entryY=0;entryDx=0;entryDy=0;entryPerimeter=0;" edge="1" parent="1" source="backendContainer" target="paramStore">
          <mxGeometry width="50" height="50" relative="1" as="geometry">
            <mxPoint x="520" y="620" as="sourcePoint" />
            <mxPoint x="570" y="570" as="targetPoint" />
            <Array as="points">
              <mxPoint x="162" y="700" />
              <mxPoint x="595" y="700" />
            </Array>
          </mxGeometry>
        </mxCell>
        
        <!-- Fargate to Secrets Manager -->
        <mxCell id="fargateToSecrets" value="" style="endArrow=classic;html=1;rounded=0;exitX=0.25;exitY=1;exitDx=0;exitDy=0;entryX=0.5;entryY=0;entryDx=0;entryDy=0;entryPerimeter=0;" edge="1" parent="1" source="fargate" target="secrets">
          <mxGeometry width="50" height="50" relative="1" as="geometry">
            <mxPoint x="520" y="620" as="sourcePoint" />
            <mxPoint x="570" y="570" as="targetPoint" />
          </mxGeometry>
        </mxCell>
        
        <!-- ECR to Fargate -->
        <mxCell id="ecrToFargate" value="" style="endArrow=classic;html=1;rounded=0;exitX=0.5;exitY=0;exitDx=0;exitDy=0;exitPerimeter=0;entryX=0;entryY=0.75;entryDx=0;entryDy=0;" edge="1" parent="1" source="ecr" target="fargate">
          <mxGeometry width="50" height="50" relative="1" as="geometry">
            <mxPoint x="520" y="620" as="sourcePoint" />
            <mxPoint x="570" y="570" as="targetPoint" />
            <Array as="points">
              <mxPoint x="170" y="628" />
            </Array>
          </mxGeometry>
        </mxCell>
        
        <!-- VPC Label -->
        <mxCell id="vpcLabel" value="VPC: vpc-019e35a7f8ca205e5" style="text;html=1;align=center;verticalAlign=middle;resizable=0;points=[];autosize=1;strokeColor=none;fillColor=none;fontStyle=1" parent="1" vertex="1">
          <mxGeometry x="50" y="60" width="190" height="30" as="geometry" />
        </mxCell>
        
        <!-- AWS Cloud Border -->
        <mxCell id="awsCloud" value="AWS Cloud" style="points=[[0,0],[0.25,0],[0.5,0],[0.75,0],[1,0],[1,0.25],[1,0.5],[1,0.75],[1,1],[0.75,1],[0.5,1],[0.25,1],[0,1],[0,0.75],[0,0.5],[0,0.25]];outlineConnect=0;gradientColor=none;html=1;whiteSpace=wrap;fontSize=12;fontStyle=0;container=1;pointerEvents=0;collapsible=0;recursiveResize=0;shape=mxgraph.aws4.group;grIcon=mxgraph.aws4.group_aws_cloud_alt;strokeColor=#232F3E;fillColor=none;verticalAlign=top;align=left;spacingLeft=30;fontColor=#232F3E;dashed=0;" vertex="1" parent="1">
          <mxGeometry x="40" y="200" width="1020" height="660" as="geometry" />
        </mxCell>
      </root>
    </mxGraphModel>
  </diagram>
</mxfile>
